<svg width="7" height="734" viewBox="0 0 7 734" fill="none" xmlns="http://www.w3.org/2000/svg">
<line x1="3.5" y1="2.18557e-08" x2="3.49997" y2="735" stroke="black" stroke-opacity="0.2"/>
<line x1="-6.86895e-09" y1="718" x2="7" y2="718" stroke="#CCCCCC"/>
<line x1="-6.86895e-09" y1="702" x2="7" y2="702" stroke="#CCCCCC"/>
<line x1="-6.86895e-09" y1="686" x2="7" y2="686" stroke="#CCCCCC"/>
<line x1="-6.86895e-09" y1="670" x2="7" y2="670" stroke="#CCCCCC"/>
<line x1="-6.86895e-09" y1="654" x2="7" y2="654" stroke="#CCCCCC"/>
<line x1="-6.86895e-09" y1="638" x2="7" y2="638" stroke="#CCCCCC"/>
<line x1="-6.86895e-09" y1="622" x2="7" y2="622" stroke="#CCCCCC"/>
<line x1="-6.86895e-09" y1="606" x2="7" y2="606" stroke="#CCCCCC"/>
<line x1="-6.86895e-09" y1="590" x2="7" y2="590" stroke="#CCCCCC"/>
<line x1="-6.86895e-09" y1="574" x2="7" y2="574" stroke="#CCCCCC"/>
<line x1="-6.86895e-09" y1="558" x2="7" y2="558" stroke="#CCCCCC"/>
<line x1="-6.86895e-09" y1="542" x2="7" y2="542" stroke="#CCCCCC"/>
<line x1="-6.86895e-09" y1="526" x2="7" y2="526" stroke="#CCCCCC"/>
<line x1="-6.86895e-09" y1="510" x2="7" y2="510" stroke="#CCCCCC"/>
<line x1="-6.86895e-09" y1="494" x2="7" y2="494" stroke="#CCCCCC"/>
<line x1="-6.86895e-09" y1="478" x2="7" y2="478" stroke="#CCCCCC"/>
<line x1="-6.86895e-09" y1="462" x2="7" y2="462" stroke="#CCCCCC"/>
<line x1="-6.86895e-09" y1="446" x2="7" y2="446" stroke="#CCCCCC"/>
<line x1="-6.86895e-09" y1="430" x2="7" y2="430" stroke="#CCCCCC"/>
<line x1="-6.86895e-09" y1="414" x2="7" y2="414" stroke="#CCCCCC"/>
<line x1="-6.86895e-09" y1="398" x2="7" y2="398" stroke="#CCCCCC"/>
<line x1="-6.86895e-09" y1="382" x2="7" y2="382" stroke="#CCCCCC"/>
<line x1="-6.86895e-09" y1="366" x2="7" y2="366" stroke="#CCCCCC"/>
<line x1="-6.86895e-09" y1="350" x2="7" y2="350" stroke="#CCCCCC"/>
<line x1="-6.86895e-09" y1="334" x2="7" y2="334" stroke="#CCCCCC"/>
<line x1="-6.86895e-09" y1="318" x2="7" y2="318" stroke="#CCCCCC"/>
<line x1="-6.86895e-09" y1="302" x2="7" y2="302" stroke="#CCCCCC"/>
<line x1="-6.86895e-09" y1="286" x2="7" y2="286" stroke="#CCCCCC"/>
<line x1="-6.86895e-09" y1="270" x2="7" y2="270" stroke="#CCCCCC"/>
<line x1="-6.86895e-09" y1="254" x2="7" y2="254" stroke="#CCCCCC"/>
<line x1="-6.86895e-09" y1="238" x2="7" y2="238" stroke="#CCCCCC"/>
<line x1="-6.86895e-09" y1="222" x2="7" y2="222" stroke="#CCCCCC"/>
<line x1="-6.86895e-09" y1="206" x2="7" y2="206" stroke="#CCCCCC"/>
<line x1="-6.86895e-09" y1="190" x2="7" y2="190" stroke="#CCCCCC"/>
<line x1="-6.86895e-09" y1="174" x2="7" y2="174" stroke="#CCCCCC"/>
<line x1="-6.86895e-09" y1="158" x2="7" y2="158" stroke="#CCCCCC"/>
<line x1="-6.86895e-09" y1="142" x2="7" y2="142" stroke="#CCCCCC"/>
<line x1="-6.86895e-09" y1="126" x2="7" y2="126" stroke="#CCCCCC"/>
<line x1="-6.86895e-09" y1="110" x2="7" y2="110" stroke="#CCCCCC"/>
<line x1="-6.86895e-09" y1="94" x2="7" y2="94" stroke="#CCCCCC"/>
<line x1="-6.86895e-09" y1="78" x2="7" y2="78" stroke="#CCCCCC"/>
<line x1="-6.86895e-09" y1="62" x2="7" y2="62" stroke="#CCCCCC"/>
<line x1="-6.86895e-09" y1="46" x2="7" y2="46" stroke="#CCCCCC"/>
<line x1="-6.86895e-09" y1="30" x2="7" y2="30" stroke="#CCCCCC"/>
<line x1="-6.86895e-09" y1="14" x2="7" y2="14" stroke="#CCCCCC"/>
</svg>
