<svg width="48" height="36" viewBox="0 0 48 36" fill="none" xmlns="http://www.w3.org/2000/svg">
<line x1="7.88458" y1="-1.77578e-08" x2="7.88458" y2="12" stroke="#FC391D" stroke-opacity="0.5"/>
<line x1="16" y1="6.03857" y2="6.03857" stroke="#FC391D" stroke-opacity="0.5"/>
<line x1="23.8846" y1="-1.77578e-08" x2="23.8846" y2="12" stroke="#FC391D" stroke-opacity="0.5"/>
<line x1="32" y1="6.03857" x2="16" y2="6.03857" stroke="#FC391D" stroke-opacity="0.5"/>
<line x1="39.8846" y1="-1.77578e-08" x2="39.8846" y2="12" stroke="#FC391D" stroke-opacity="0.5"/>
<line x1="48" y1="6.03857" x2="32" y2="6.03857" stroke="#FC391D" stroke-opacity="0.5"/>
<line x1="39.8846" y1="12" x2="39.8846" y2="24" stroke="#FC391D" stroke-opacity="0.5"/>
<line x1="48" y1="18.0386" x2="32" y2="18.0386" stroke="#FC391D" stroke-opacity="0.5"/>
<line x1="39.8846" y1="24" x2="39.8846" y2="36" stroke="#FC391D" stroke-opacity="0.5"/>
<line x1="48" y1="30.0386" x2="32" y2="30.0386" stroke="#FC391D" stroke-opacity="0.5"/>
<line x1="23.8846" y1="24" x2="23.8846" y2="36" stroke="#FC391D" stroke-opacity="0.5"/>
<line x1="32" y1="30.0386" x2="16" y2="30.0386" stroke="#FC391D" stroke-opacity="0.5"/>
<line x1="7.88458" y1="24" x2="7.88458" y2="36" stroke="#FC391D" stroke-opacity="0.5"/>
<line x1="16" y1="30.0386" y2="30.0386" stroke="#FC391D" stroke-opacity="0.5"/>
<line x1="7.88458" y1="12" x2="7.88458" y2="24" stroke="#FC391D" stroke-opacity="0.5"/>
<line x1="16" y1="18.0386" y2="18.0386" stroke="#FC391D" stroke-opacity="0.5"/>
</svg>
