<svg width="735" height="734" viewBox="0 0 735 734" fill="none" xmlns="http://www.w3.org/2000/svg">
<g clip-path="url(#clip0)">
<g clip-path="url(#clip1)">
<g opacity="0.1">
<path d="M-22 -21H1418V-20H-22V-21Z" fill="#FF0000"/>
<path d="M-22 35H1418V36H-22V35Z" fill="#FF0000"/>
<path d="M-22 91H1418V92H-22V91Z" fill="#FF0000"/>
<path d="M-22 147H1418V148H-22V147Z" fill="#FF0000"/>
<path d="M-22 203H1418V204H-22V203Z" fill="#FF0000"/>
<path d="M-22 259H1418V260H-22V259Z" fill="#FF0000"/>
<path d="M-22 315H1418V316H-22V315Z" fill="#FF0000"/>
<path d="M-22 371H1418V372H-22V371Z" fill="#FF0000"/>
<path d="M-22 427H1418V428H-22V427Z" fill="#FF0000"/>
<path d="M-22 483H1418V484H-22V483Z" fill="#FF0000"/>
<path d="M-22 539H1418V540H-22V539Z" fill="#FF0000"/>
<path d="M-22 595H1418V596H-22V595Z" fill="#FF0000"/>
<path d="M-22 651H1418V652H-22V651Z" fill="#FF0000"/>
<path d="M-22 707H1418V708H-22V707Z" fill="#FF0000"/>
<path d="M-22 763H1418V764H-22V763Z" fill="#FF0000"/>
<path d="M-22 819H1418V820H-22V819Z" fill="#FF0000"/>
<path d="M-22 875H1418V876H-22V875Z" fill="#FF0000"/>
<path d="M-22 -21H-21V879H-22V-21Z" fill="#FF0000"/>
<path d="M34 -21H35V879H34V-21Z" fill="#FF0000"/>
<path d="M90 -21H91V879H90V-21Z" fill="#FF0000"/>
<path d="M146 -21H147V879H146V-21Z" fill="#FF0000"/>
<path d="M202 -21H203V879H202V-21Z" fill="#FF0000"/>
<path d="M258 -21H259V879H258V-21Z" fill="#FF0000"/>
<path d="M314 -21H315V879H314V-21Z" fill="#FF0000"/>
<path d="M370 -21H371V879H370V-21Z" fill="#FF0000"/>
<path d="M426 -21H427V879H426V-21Z" fill="#FF0000"/>
<path d="M482 -21H483V879H482V-21Z" fill="#FF0000"/>
<path d="M538 -21H539V879H538V-21Z" fill="#FF0000"/>
<path d="M594 -21H595V879H594V-21Z" fill="#FF0000"/>
<path d="M650 -21H651V879H650V-21Z" fill="#FF0000"/>
<path d="M706 -21H707V879H706V-21Z" fill="#FF0000"/>
<path d="M762 -21H763V879H762V-21Z" fill="#FF0000"/>
<path d="M818 -21H819V879H818V-21Z" fill="#FF0000"/>
<path d="M874 -21H875V879H874V-21Z" fill="#FF0000"/>
<path d="M930 -21H931V879H930V-21Z" fill="#FF0000"/>
<path d="M986 -21H987V879H986V-21Z" fill="#FF0000"/>
<path d="M1042 -21H1043V879H1042V-21Z" fill="#FF0000"/>
<path d="M1098 -21H1099V879H1098V-21Z" fill="#FF0000"/>
<path d="M1154 -21H1155V879H1154V-21Z" fill="#FF0000"/>
<path d="M1210 -21H1211V879H1210V-21Z" fill="#FF0000"/>
<path d="M1266 -21H1267V879H1266V-21Z" fill="#FF0000"/>
<path d="M1322 -21H1323V879H1322V-21Z" fill="#FF0000"/>
<path d="M1378 -21H1379V879H1378V-21Z" fill="#FF0000"/>
</g>
</g>
<rect x="658.125" y="254.125" width="49.75" height="49.75" stroke="#FF0000" stroke-opacity="0.1" stroke-width="0.25"/>
</g>
<defs>
<clipPath id="clip0">
<rect width="735" height="734" fill="white"/>
</clipPath>
<clipPath id="clip1">
<rect width="776" height="777" fill="white" transform="translate(-22 -21)"/>
</clipPath>
</defs>
</svg>
