<svg width="735" height="734" viewBox="0 0 735 734" fill="none" xmlns="http://www.w3.org/2000/svg">
<g clip-path="url(#clip0)">
<g clip-path="url(#clip1)">
<g opacity="0.1">
<path d="M-22 -21H1418V-20H-22V-21Z" fill="#FF0000"/>
<path d="M-22 35H1418V36H-22V35Z" fill="#FF0000"/>
<path d="M-22 91H1418V92H-22V91Z" fill="#FF0000"/>
<path d="M-22 147H1418V148H-22V147Z" fill="#FF0000"/>
<path d="M-22 203H1418V204H-22V203Z" fill="#FF0000"/>
<path d="M-22 259H1418V260H-22V259Z" fill="#FF0000"/>
<path d="M-22 315H1418V316H-22V315Z" fill="#FF0000"/>
<path d="M-22 371H1418V372H-22V371Z" fill="#FF0000"/>
<path d="M-22 427H1418V428H-22V427Z" fill="#FF0000"/>
<path d="M-22 483H1418V484H-22V483Z" fill="#FF0000"/>
<path d="M-22 539H1418V540H-22V539Z" fill="#FF0000"/>
<path d="M-22 595H1418V596H-22V595Z" fill="#FF0000"/>
<path d="M-22 651H1418V652H-22V651Z" fill="#FF0000"/>
<path d="M-22 707H1418V708H-22V707Z" fill="#FF0000"/>
<path d="M-22 763H1418V764H-22V763Z" fill="#FF0000"/>
<path d="M-22 819H1418V820H-22V819Z" fill="#FF0000"/>
<path d="M-22 875H1418V876H-22V875Z" fill="#FF0000"/>
<path d="M-22 -21H-21V879H-22V-21Z" fill="#FF0000"/>
<path d="M34 -21H35V879H34V-21Z" fill="#FF0000"/>
<path d="M90 -21H91V879H90V-21Z" fill="#FF0000"/>
<path d="M146 -21H147V879H146V-21Z" fill="#FF0000"/>
<path d="M202 -21H203V879H202V-21Z" fill="#FF0000"/>
<path d="M258 -21H259V879H258V-21Z" fill="#FF0000"/>
<path d="M314 -21H315V879H314V-21Z" fill="#FF0000"/>
<path d="M370 -21H371V879H370V-21Z" fill="#FF0000"/>
<path d="M426 -21H427V879H426V-21Z" fill="#FF0000"/>
<path d="M482 -21H483V879H482V-21Z" fill="#FF0000"/>
<path d="M538 -21H539V879H538V-21Z" fill="#FF0000"/>
<path d="M594 -21H595V879H594V-21Z" fill="#FF0000"/>
<path d="M650 -21H651V879H650V-21Z" fill="#FF0000"/>
<path d="M706 -21H707V879H706V-21Z" fill="#FF0000"/>
<path d="M762 -21H763V879H762V-21Z" fill="#FF0000"/>
<path d="M818 -21H819V879H818V-21Z" fill="#FF0000"/>
<path d="M874 -21H875V879H874V-21Z" fill="#FF0000"/>
<path d="M930 -21H931V879H930V-21Z" fill="#FF0000"/>
<path d="M986 -21H987V879H986V-21Z" fill="#FF0000"/>
<path d="M1042 -21H1043V879H1042V-21Z" fill="#FF0000"/>
<path d="M1098 -21H1099V879H1098V-21Z" fill="#FF0000"/>
<path d="M1154 -21H1155V879H1154V-21Z" fill="#FF0000"/>
<path d="M1210 -21H1211V879H1210V-21Z" fill="#FF0000"/>
<path d="M1266 -21H1267V879H1266V-21Z" fill="#FF0000"/>
<path d="M1322 -21H1323V879H1322V-21Z" fill="#FF0000"/>
<path d="M1378 -21H1379V879H1378V-21Z" fill="#FF0000"/>
</g>
</g>
<mask maskUnits="userSpaceOnUse" x="0" y="0" width="0" height="0" fill="black">
<rect fill="white" width="0" height="0"/>
</mask>
<path d="M0.146447 371.146C-0.0488154 371.342 -0.0488155 371.658 0.146447 371.854L3.32843 375.036C3.52369 375.231 3.84027 375.231 4.03553 375.036C4.2308 374.84 4.2308 374.524 4.03553 374.328L1.20711 371.5L4.03553 368.672C4.2308 368.476 4.2308 368.16 4.03553 367.964C3.84027 367.769 3.52369 367.769 3.32843 367.964L0.146447 371.146ZM734.854 371.854C735.049 371.658 735.049 371.342 734.854 371.147L731.672 367.965C731.476 367.769 731.16 367.769 730.964 367.965C730.769 368.16 730.769 368.476 730.964 368.672L733.793 371.5L730.964 374.329C730.769 374.524 730.769 374.84 730.964 375.036C731.16 375.231 731.476 375.231 731.672 375.036L734.854 371.854ZM0.5 372L734.5 372L734.5 371L0.5 371L0.5 372Z" fill="black" fill-opacity="0.2" mask="url(#)"/>
<line x1="18.5" y1="368" x2="18.5" y2="375" stroke="#CCCCCC"/>
<line x1="34.5" y1="368" x2="34.5" y2="375" stroke="#CCCCCC"/>
<line x1="50.5" y1="368" x2="50.5" y2="375" stroke="#CCCCCC"/>
<line x1="66.5" y1="368" x2="66.5" y2="375" stroke="#CCCCCC"/>
<line x1="82.5" y1="368" x2="82.5" y2="375" stroke="#CCCCCC"/>
<line x1="98.5" y1="368" x2="98.5" y2="375" stroke="#CCCCCC"/>
<line x1="114.5" y1="368" x2="114.5" y2="375" stroke="#CCCCCC"/>
<line x1="130.5" y1="368" x2="130.5" y2="375" stroke="#CCCCCC"/>
<line x1="146.5" y1="368" x2="146.5" y2="375" stroke="#CCCCCC"/>
<line x1="162.5" y1="368" x2="162.5" y2="375" stroke="#CCCCCC"/>
<line x1="178.5" y1="368" x2="178.5" y2="375" stroke="#CCCCCC"/>
<line x1="194.5" y1="368" x2="194.5" y2="375" stroke="#CCCCCC"/>
<line x1="210.5" y1="368" x2="210.5" y2="375" stroke="#CCCCCC"/>
<line x1="226.5" y1="368" x2="226.5" y2="375" stroke="#CCCCCC"/>
<line x1="242.5" y1="368" x2="242.5" y2="375" stroke="#CCCCCC"/>
<line x1="258.5" y1="368" x2="258.5" y2="375" stroke="#CCCCCC"/>
<line x1="274.5" y1="368" x2="274.5" y2="375" stroke="#CCCCCC"/>
<line x1="290.5" y1="368" x2="290.5" y2="375" stroke="#CCCCCC"/>
<line x1="306.5" y1="368" x2="306.5" y2="375" stroke="#CCCCCC"/>
<line x1="322.5" y1="368" x2="322.5" y2="375" stroke="#CCCCCC"/>
<line x1="338.5" y1="368" x2="338.5" y2="375" stroke="#CCCCCC"/>
<line x1="354.5" y1="368" x2="354.5" y2="375" stroke="#CCCCCC"/>
<line x1="370.5" y1="368" x2="370.5" y2="375" stroke="#CCCCCC"/>
<line x1="386.5" y1="368" x2="386.5" y2="375" stroke="#CCCCCC"/>
<line x1="402.5" y1="368" x2="402.5" y2="375" stroke="#CCCCCC"/>
<line x1="418.5" y1="368" x2="418.5" y2="375" stroke="#CCCCCC"/>
<line x1="434.5" y1="368" x2="434.5" y2="375" stroke="#CCCCCC"/>
<line x1="450.5" y1="368" x2="450.5" y2="375" stroke="#CCCCCC"/>
<line x1="466.5" y1="368" x2="466.5" y2="375" stroke="#CCCCCC"/>
<line x1="482.5" y1="368" x2="482.5" y2="375" stroke="#CCCCCC"/>
<line x1="498.5" y1="368" x2="498.5" y2="375" stroke="#CCCCCC"/>
<line x1="514.5" y1="368" x2="514.5" y2="375" stroke="#CCCCCC"/>
<line x1="530.5" y1="368" x2="530.5" y2="375" stroke="#CCCCCC"/>
<line x1="546.5" y1="368" x2="546.5" y2="375" stroke="#CCCCCC"/>
<line x1="562.5" y1="368" x2="562.5" y2="375" stroke="#CCCCCC"/>
<line x1="578.5" y1="368" x2="578.5" y2="375" stroke="#CCCCCC"/>
<line x1="594.5" y1="368" x2="594.5" y2="375" stroke="#CCCCCC"/>
<line x1="610.5" y1="368" x2="610.5" y2="375" stroke="#CCCCCC"/>
<line x1="626.5" y1="368" x2="626.5" y2="375" stroke="#CCCCCC"/>
<line x1="642.5" y1="368" x2="642.5" y2="375" stroke="#CCCCCC"/>
<line x1="658.5" y1="368" x2="658.5" y2="375" stroke="#CCCCCC"/>
<line x1="674.5" y1="368" x2="674.5" y2="375" stroke="#CCCCCC"/>
<line x1="690.5" y1="368" x2="690.5" y2="375" stroke="#CCCCCC"/>
<line x1="706.5" y1="368" x2="706.5" y2="375" stroke="#CCCCCC"/>
<line x1="722.5" y1="368" x2="722.5" y2="375" stroke="#CCCCCC"/>
<mask maskUnits="userSpaceOnUse" x="0" y="0" width="0" height="0" fill="black">
<rect fill="white" width="0" height="0"/>
</mask>
<path d="M370.854 5.14645C370.658 4.95118 370.342 4.95118 370.146 5.14645L366.964 8.32843C366.769 8.52369 366.769 8.84027 366.964 9.03553C367.16 9.2308 367.476 9.2308 367.672 9.03553L370.5 6.20711L373.328 9.03553C373.524 9.2308 373.84 9.2308 374.036 9.03553C374.231 8.84027 374.231 8.52369 374.036 8.32843L370.854 5.14645ZM370.146 733.854C370.342 734.049 370.658 734.049 370.854 733.854L374.036 730.672C374.231 730.476 374.231 730.16 374.036 729.964C373.84 729.769 373.524 729.769 373.328 729.964L370.5 732.793L367.672 729.964C367.476 729.769 367.16 729.769 366.964 729.964C366.769 730.16 366.769 730.476 366.964 730.672L370.146 733.854ZM370 5.5L370 733.5L371 733.5L371 5.5L370 5.5Z" fill="black" fill-opacity="0.2" mask="url(#)"/>
<line x1="367.5" y1="723" x2="374.5" y2="723" stroke="#CCCCCC"/>
<line x1="367.5" y1="707" x2="374.5" y2="707" stroke="#CCCCCC"/>
<line x1="367.5" y1="691" x2="374.5" y2="691" stroke="#CCCCCC"/>
<line x1="367.5" y1="675" x2="374.5" y2="675" stroke="#CCCCCC"/>
<line x1="367.5" y1="659" x2="374.5" y2="659" stroke="#CCCCCC"/>
<line x1="367.5" y1="643" x2="374.5" y2="643" stroke="#CCCCCC"/>
<line x1="367.5" y1="627" x2="374.5" y2="627" stroke="#CCCCCC"/>
<line x1="367.5" y1="611" x2="374.5" y2="611" stroke="#CCCCCC"/>
<line x1="367.5" y1="595" x2="374.5" y2="595" stroke="#CCCCCC"/>
<line x1="367.5" y1="579" x2="374.5" y2="579" stroke="#CCCCCC"/>
<line x1="367.5" y1="563" x2="374.5" y2="563" stroke="#CCCCCC"/>
<line x1="367.5" y1="547" x2="374.5" y2="547" stroke="#CCCCCC"/>
<line x1="367.5" y1="531" x2="374.5" y2="531" stroke="#CCCCCC"/>
<line x1="367.5" y1="515" x2="374.5" y2="515" stroke="#CCCCCC"/>
<line x1="367.5" y1="499" x2="374.5" y2="499" stroke="#CCCCCC"/>
<line x1="367.5" y1="483" x2="374.5" y2="483" stroke="#CCCCCC"/>
<line x1="367.5" y1="467" x2="374.5" y2="467" stroke="#CCCCCC"/>
<line x1="367.5" y1="451" x2="374.5" y2="451" stroke="#CCCCCC"/>
<line x1="367.5" y1="435" x2="374.5" y2="435" stroke="#CCCCCC"/>
<line x1="367.5" y1="419" x2="374.5" y2="419" stroke="#CCCCCC"/>
<line x1="367.5" y1="403" x2="374.5" y2="403" stroke="#CCCCCC"/>
<line x1="367.5" y1="387" x2="374.5" y2="387" stroke="#CCCCCC"/>
<line x1="367.5" y1="371" x2="374.5" y2="371" stroke="#CCCCCC"/>
<line x1="367.5" y1="355" x2="374.5" y2="355" stroke="#CCCCCC"/>
<line x1="367.5" y1="339" x2="374.5" y2="339" stroke="#CCCCCC"/>
<line x1="367.5" y1="323" x2="374.5" y2="323" stroke="#CCCCCC"/>
<line x1="367.5" y1="307" x2="374.5" y2="307" stroke="#CCCCCC"/>
<line x1="367.5" y1="291" x2="374.5" y2="291" stroke="#CCCCCC"/>
<line x1="367.5" y1="275" x2="374.5" y2="275" stroke="#CCCCCC"/>
<line x1="367.5" y1="259" x2="374.5" y2="259" stroke="#CCCCCC"/>
<line x1="367.5" y1="243" x2="374.5" y2="243" stroke="#CCCCCC"/>
<line x1="367.5" y1="227" x2="374.5" y2="227" stroke="#CCCCCC"/>
<line x1="367.5" y1="211" x2="374.5" y2="211" stroke="#CCCCCC"/>
<line x1="367.5" y1="195" x2="374.5" y2="195" stroke="#CCCCCC"/>
<line x1="367.5" y1="179" x2="374.5" y2="179" stroke="#CCCCCC"/>
<line x1="367.5" y1="163" x2="374.5" y2="163" stroke="#CCCCCC"/>
<line x1="367.5" y1="147" x2="374.5" y2="147" stroke="#CCCCCC"/>
<line x1="367.5" y1="131" x2="374.5" y2="131" stroke="#CCCCCC"/>
<line x1="367.5" y1="115" x2="374.5" y2="115" stroke="#CCCCCC"/>
<line x1="367.5" y1="99" x2="374.5" y2="99" stroke="#CCCCCC"/>
<line x1="367.5" y1="83" x2="374.5" y2="83" stroke="#CCCCCC"/>
<line x1="367.5" y1="67" x2="374.5" y2="67" stroke="#CCCCCC"/>
<line x1="367.5" y1="51" x2="374.5" y2="51" stroke="#CCCCCC"/>
<line x1="367.5" y1="35" x2="374.5" y2="35" stroke="#CCCCCC"/>
<line x1="367.5" y1="19" x2="374.5" y2="19" stroke="#CCCCCC"/>
<rect x="658.125" y="254.125" width="49.75" height="49.75" stroke="#FF0000" stroke-opacity="0.1" stroke-width="0.25"/>
</g>
<defs>
<clipPath id="clip0">
<rect width="735" height="734" fill="white"/>
</clipPath>
<clipPath id="clip1">
<rect width="776" height="777" fill="white" transform="translate(-22 -21)"/>
</clipPath>
</defs>
</svg>
