<svg width="17" height="17" viewBox="0 0 17 17" fill="none" xmlns="http://www.w3.org/2000/svg">
<rect x="0.5" y="5.30951" width="11.1905" height="11.1905" stroke="#222222"/>
<rect x="6.09521" y="1" width="9.90476" height="9.90476" fill="white"/>
<path d="M14.2143 3.28574C14.2143 3.0096 13.9904 2.78574 13.7143 2.78574L9.21426 2.78574C8.93812 2.78574 8.71426 3.0096 8.71426 3.28574C8.71426 3.56188 8.93812 3.78574 9.21426 3.78574L13.2143 3.78574L13.2143 7.78574C13.2143 8.06188 13.4381 8.28574 13.7143 8.28574C13.9904 8.28574 14.2143 8.06188 14.2143 7.78574L14.2143 3.28574ZM6.44877 11.2583L14.0678 3.63929L13.3607 2.93218L5.74166 10.5512L6.44877 11.2583Z" fill="black"/>
</svg>
